<svg width="64" height="65" viewBox="0 0 64 65" fill="none" xmlns="http://www.w3.org/2000/svg">
<g clip-path="url(#clip0_233_7876)">
<rect x="44" y="8.6084" width="16" height="48" fill="#FFDCA7"/>
<rect x="48" y="58.6084" width="8" height="2" fill="#FFDCA7"/>
<rect x="48" y="4.6084" width="8" height="2" fill="#FFDCA7"/>
<rect x="4.85938" y="9.36621" width="40" height="44" fill="#FFDCA7"/>
<rect x="40" y="10.6084" width="4" height="44" fill="#EEB661"/>
<rect x="48" y="56.6084" width="4" height="4" fill="#B47518"/>
<rect x="52" y="56.6084" width="4" height="4" fill="#B47518"/>
<rect x="52" y="54.6084" width="4" height="4" fill="#B47518"/>
<rect x="36" y="52.6084" width="4" height="2" fill="#F2BE6F"/>
<rect x="52" y="4.6084" width="4" height="4" fill="#FFEBCD"/>
<rect x="52" y="6.6084" width="4" height="4" fill="#FFEBCD"/>
<rect x="8" y="10.6084" width="4" height="2" fill="#FFEBCD"/>
<rect x="48" y="4.6084" width="4" height="4" fill="#FFEBCD"/>
<rect x="56" y="8.6084" width="4" height="48" fill="#B47518"/>
<rect x="52" y="10.6084" width="4" height="46" fill="#F2BE6F"/>
<rect x="44" y="8.6084" width="4" height="48" fill="#FFEBCD"/>
<rect x="4" y="10.6084" width="4" height="44" fill="#FFEBCD"/>
<path fill-rule="evenodd" clip-rule="evenodd" d="M44 0.608398H60V4.6084H64V60.6084H60V64.6084H44V60.6084H40V58.6084H0V6.6084H40V4.6084H44V0.608398ZM48 60.6084H56V56.6084H60V8.6084H56V4.6084H48V8.6084H44V10.6084H4V54.6084H44V56.6084H48V60.6084Z" fill="black"/>
<path d="M28.9312 22.9477L30.6633 21.9477L31.6633 23.6798L29.9312 24.6798L28.9312 22.9477Z" fill="#FF0B0B"/>
<path d="M30.6656 21.9477L32.3976 20.9477L33.3976 22.6798L31.6656 23.6798L30.6656 21.9477Z" fill="#FF0B0B"/>
<path d="M27.2007 23.9477L28.9312 22.9477L29.9312 24.6798L28.2007 25.6798L27.2007 23.9477Z" fill="#FF0B0B"/>
<path d="M25.4664 24.9477L27.1984 23.9477L28.1984 25.6798L26.4664 26.6798L25.4664 24.9477Z" fill="#FF0B0B"/>
<path d="M32.3976 20.9477L34.1281 19.9477L35.1281 21.6798L33.3976 22.6798L32.3976 20.9477Z" fill="#FF0B0B"/>
<path d="M29.9312 24.6821L31.6633 23.6821L32.6633 25.4141L30.9312 26.4141L29.9312 24.6821Z" fill="#FF0B0B"/>
<path d="M27.9312 21.2172L29.6633 20.2172L30.6633 21.9477L28.9312 22.9477L27.9312 21.2172Z" fill="#FF0B0B"/>
<path d="M26.9312 19.4829L28.6633 18.4829L29.6633 20.2149L27.9312 21.2149L26.9312 19.4829Z" fill="#FF0B0B"/>
<path d="M30.9312 26.4141L32.6633 25.4141L33.6633 27.1446L31.9312 28.1446L30.9312 26.4141Z" fill="#FF0B0B"/>
<path d="M23.7335 25.9477L25.4664 24.9477L26.4664 26.6798L24.7335 27.6798L23.7335 25.9477Z" fill="#FF0B0B"/>
<path d="M25.9312 17.7515L27.6641 16.7515L28.6641 18.4835L26.9312 19.4829L25.9312 17.7515Z" fill="#FF0B0B"/>
<path d="M34.1281 19.9477L35.861 18.9484L36.861 20.6804L35.1281 21.6798L34.1281 19.9477Z" fill="#FF0B0B"/>
<path d="M31.9312 28.1446L33.6641 27.1453L34.6641 28.8773L32.9312 29.8767L31.9312 28.1446Z" fill="#FF0B0B"/>
<path d="M26.1991 22.2172L27.9312 21.2172L28.9312 22.9477L27.1984 23.9477L26.1991 22.2172Z" fill="#FF0B0B"/>
<path d="M25.1991 20.4829L26.9312 19.4829L27.9312 21.2149L26.1991 22.2149L25.1991 20.4829Z" fill="#FF0B0B"/>
<path d="M24.1991 18.7515L25.9312 17.7515L26.932 19.4835L25.1991 20.4829L24.1991 18.7515Z" fill="#FF0B0B"/>
<path d="M30.2007 29.1479L31.9328 28.1479L32.9328 29.8783L31.2 30.8783L30.2007 29.1479Z" fill="#FF0B0B"/>
<path d="M29.2007 27.4135L30.9328 26.4135L31.9328 28.1456L30.2007 29.1456L29.2007 27.4135Z" fill="#FF0B0B"/>
<path d="M28.2007 25.6821L29.9328 24.6821L30.9336 26.4141L29.2007 27.4135L28.2007 25.6821Z" fill="#FF0B0B"/>
<path d="M22 26.9477L23.7335 25.9477L24.7335 27.6798L23 28.6798L22 26.9477Z" fill="#FF0B0B"/>
<path d="M35.1319 21.6821L36.864 20.6821L37.864 22.4141L36.1319 23.4141L35.1319 21.6821Z" fill="#FF0B0B"/>
<path d="M33.399 22.6821L35.1319 21.6821L36.1319 23.4141L34.399 24.4141L33.399 22.6821Z" fill="#FF0B0B"/>
<path d="M31.6656 23.6821L33.399 22.6821L34.399 24.4141L32.6656 25.4141L31.6656 23.6821Z" fill="#FF0B0B"/>
<path d="M26.4664 26.6836L28.1984 25.6836L29.1984 27.4156L27.4664 28.4156L26.4664 26.6836Z" fill="#FF0B0B"/>
<path d="M24.7335 27.6836L26.4664 26.6836L27.4664 28.4156L25.7335 29.4156L24.7335 27.6836Z" fill="#FF0B0B"/>
<path d="M23 28.6836L24.7335 27.6836L25.7335 29.4156L24 30.4156L23 28.6836Z" fill="#FF0B0B"/>
<path d="M32.9082 29.8745L34.6411 28.8752L35.6411 30.6072L33.9082 31.6066L32.9082 29.8745Z" fill="#FF0B0B"/>
<path d="M31.1777 30.8778L32.9098 29.8778L33.9098 31.6082L32.177 32.6082L31.1777 30.8778Z" fill="#FF0B0B"/>
<rect x="10.9668" y="47.2812" width="4" height="2" transform="rotate(-31.0599 10.9668 47.2812)" fill="#FF0B0B"/>
<rect x="16.1016" y="43.9785" width="4" height="2" transform="rotate(-39.6957 16.1016 43.9785)" fill="#FF0B0B"/>
<rect x="20.6895" y="39.8281" width="4" height="2" transform="rotate(-47.7683 20.6895 39.8281)" fill="#FF0B0B"/>
<rect x="24.6512" y="34.9043" width="4" height="2" transform="rotate(-57.4514 24.6512 34.9043)" fill="#FF0B0B"/>
<rect x="16" y="10.6084" width="4" height="4" fill="black"/>
<rect x="30" y="54.6084" width="4" height="4" transform="rotate(-180 30 54.6084)" fill="black"/>
<rect x="14" y="8.6084" width="4" height="4" fill="black"/>
<rect x="32" y="56.6084" width="4" height="4" transform="rotate(-180 32 56.6084)" fill="black"/>
<rect x="18" y="8.6084" width="4" height="4" fill="black"/>
<rect x="28" y="56.6084" width="4" height="4" transform="rotate(-180 28 56.6084)" fill="black"/>
</g>
<defs>
<clipPath id="clip0_233_7876">
<rect width="64" height="64" fill="white" transform="translate(0 0.608398)"/>
</clipPath>
</defs>
</svg>
